<svg width="36" height="36" viewBox="0 0 36 36" fill="none" xmlns="http://www.w3.org/2000/svg">
<path d="M21.5974 3.41426C18.0675 2.56879 14.3514 3.02664 11.1318 4.70368C7.9123 6.38072 5.4057 9.16426 4.07268 12.5428C3.36141 14.3086 2.99747 16.1953 3.00083 18.0992C2.99751 18.1329 3.00421 18.1669 3.02011 18.1968C3.03601 18.2266 3.06039 18.2512 3.09019 18.2672C3.11998 18.2833 3.15385 18.2902 3.18754 18.287C3.22123 18.2838 3.25323 18.2707 3.27951 18.2494C4.08938 17.7192 5.03424 17.4325 6.002 17.4235H6.07703C6.0757 16.9738 6.13703 16.5261 6.25924 16.0933C6.61367 15.0057 7.3805 14.1008 8.39477 13.5732C9.40904 13.0456 10.5897 12.9375 11.6828 13.2722C11.9016 13.3505 12.1163 13.44 12.3259 13.5403C13.1348 11.8794 14.5233 10.5723 16.2293 9.86581C17.9353 9.15932 19.8407 9.10233 21.5858 9.7056C23.3309 10.3089 24.7949 11.5307 25.7014 13.1403C26.608 14.7499 26.8943 16.636 26.5064 18.4425C26.8957 18.476 27.2802 18.5515 27.6533 18.6678C28.7232 18.9966 29.6634 19.6523 30.3419 20.543C31.0205 21.4337 31.4034 22.5147 31.4369 23.6343C31.4411 23.6838 31.4616 23.7306 31.4952 23.7673C31.5287 23.8039 31.5735 23.8285 31.6224 23.837C31.6713 23.8456 31.7218 23.8377 31.7658 23.8146C31.8098 23.7915 31.8449 23.7545 31.8657 23.7094C32.0414 23.308 32.1918 22.896 32.3158 22.4758C32.927 20.5204 33.1319 18.4605 32.918 16.4229C32.704 14.3853 32.0757 12.413 31.0717 10.6275C30.0676 8.84196 28.7092 7.28092 27.0798 6.04042C25.4505 4.79992 23.5847 3.90621 21.5974 3.41426Z" fill="#E5E5E5"/>
<path d="M25.8312 22.8725C25.3201 22.8468 24.8092 22.9271 24.3306 23.1085C24.3306 23.0227 24.3306 22.9476 24.3306 22.8511C24.4329 21.3376 23.9303 19.8454 22.9333 18.7028C21.9363 17.5601 20.5266 16.8607 19.0142 16.7583C17.5019 16.6559 16.0109 17.1589 14.8691 18.1567C13.7274 19.1544 13.0285 20.5653 12.9261 22.0788C12.3031 21.7109 11.6011 21.4976 10.8789 21.4566C9.73341 21.4099 8.61576 21.8175 7.76882 22.5908C6.92188 23.364 6.41406 24.4406 6.35571 25.5864C6.32503 26.2176 6.43401 26.8477 6.67489 27.4318C6.91576 28.0159 7.28258 28.5396 7.74912 28.9654L8.10283 29.2872C9.70036 30.6597 11.5602 31.6925 13.5692 32.3229C15.8655 33.0374 18.2997 33.1891 20.6668 32.7654C23.0339 32.3416 25.2646 31.3547 27.171 29.8879C27.7052 29.5006 28.1941 29.0544 28.6287 28.5577C29.0696 27.991 29.3242 27.3015 29.3576 26.584C29.3733 26.1077 29.2941 25.6329 29.1247 25.1874C28.9554 24.742 28.6991 24.3347 28.3709 23.9893C28.0428 23.6439 27.6492 23.3673 27.2132 23.1755C26.7771 22.9838 26.3074 22.8808 25.8312 22.8725Z" fill="#E5E5E5"/>
</svg>
