<svg width="64" height="64" viewBox="0 0 64 64" fill="none" xmlns="http://www.w3.org/2000/svg">
<g clip-path="url(#clip0_9_425)">
<path d="M20.1966 2C10.1421 2 2 10.1659 2 20.2441C2 29.7284 9.2335 37.532 18.4684 38.3991C18.4209 38.0131 18.3971 37.6033 18.3971 37.2113C18.3971 31.4625 23.0353 26.8124 28.7722 26.8124C31.5041 26.8124 33.9806 27.8636 35.8216 29.5977C37.4608 26.8599 38.3932 23.6708 38.3932 20.2678C38.3991 10.1659 30.251 2 20.1966 2ZM13.7826 25.5831C10.4391 25.5831 7.70722 22.869 7.70722 19.4958C7.70722 16.1225 10.4153 13.4085 13.7826 13.4085C17.15 13.4085 19.8581 16.1225 19.8581 19.4958C19.8581 22.869 17.1262 25.5831 13.7826 25.5831ZM23.4748 12.1079C21.7229 12.1079 20.3154 10.6944 20.3154 8.93655C20.3154 7.17866 21.7229 5.76522 23.4748 5.76522C25.2268 5.76522 26.6343 7.17866 26.6343 8.93655C26.6105 10.6944 25.203 12.1079 23.4748 12.1079Z" fill="#B3B3B3"/>
<path d="M58.7336 49.0176V56.8568C58.7336 57.3913 58.2942 57.8249 57.7597 57.8249H35.9167C35.3822 57.8249 34.9427 57.3913 34.9427 56.8568V49.0176H31.6763V56.8568C31.6763 59.1967 33.5768 61.0912 35.9167 61.0912H57.7597C60.0996 61.0912 62 59.1967 62 56.8568V49.0176H58.7336Z" fill="#B3B3B3"/>
<path d="M46.1611 51.9335L46.8382 52.6581L55.2475 43.6607H48.4713V32.6323H45.205V43.6607H38.4288L45.205 50.912L46.1611 51.9335Z" fill="#B3B3B3"/>
</g>
<defs>
<clipPath id="clip0_9_425">
<rect width="60" height="59.0854" fill="white" transform="translate(2 2)"/>
</clipPath>
</defs>
</svg>
