<svg width="36" height="36" viewBox="0 0 36 36" fill="none" xmlns="http://www.w3.org/2000/svg">
<path d="M18 3C9.7125 3 3 9.72932 3 18.0376C3 25.8571 8.9625 32.2857 16.575 33C16.5375 32.6805 16.5187 32.3421 16.5187 32.0226C16.5187 27.2857 20.3438 23.4511 25.0687 23.4511C27.3187 23.4511 29.3625 24.3158 30.8812 25.7444C32.2312 23.4887 33 20.8571 33 18.0564C33 9.72932 26.2875 3 18 3ZM12.7125 22.4361C9.95625 22.4361 7.70625 20.1992 7.70625 17.4173C7.70625 14.6353 9.9375 12.3985 12.7125 12.3985C15.4688 12.3985 17.7188 14.6353 17.7188 17.4173C17.7188 20.1992 15.4688 22.4361 12.7125 22.4361ZM20.7 11.3271C19.2562 11.3271 18.0938 10.1617 18.0938 8.71429C18.0938 7.26692 19.2562 6.1015 20.7 6.1015C22.1437 6.1015 23.3063 7.26692 23.3063 8.71429C23.2875 10.1617 22.125 11.3271 20.7 11.3271Z" fill="#E5E5E5"/>
</svg>
