<svg width="36" height="36" viewBox="0 0 36 36" fill="none" xmlns="http://www.w3.org/2000/svg">
<path d="M23.8682 7.02809C23.4196 7.02809 22.981 7.16111 22.608 7.41036C22.235 7.6596 21.9443 8.01387 21.7726 8.42835C21.6009 8.84283 21.556 9.29892 21.6435 9.73893C21.731 10.1789 21.9471 10.5831 22.2643 10.9003C22.5815 11.2176 22.9857 11.4336 23.4257 11.5211C23.8657 11.6086 24.3218 11.5637 24.7363 11.392C25.1508 11.2204 25.505 10.9296 25.7543 10.5566C26.0035 10.1836 26.1365 9.74502 26.1365 9.29639C26.1376 8.9982 26.0797 8.70275 25.9661 8.42705C25.8525 8.15134 25.6855 7.90085 25.4746 7.69C25.2638 7.47914 25.0133 7.31208 24.7376 7.19848C24.4619 7.08488 24.1664 7.02698 23.8682 7.02809Z" fill="#E5E5E5"/>
<path d="M9.29218 7.02809C8.69058 7.02809 8.11363 7.26707 7.68824 7.69246C7.26285 8.11785 7.02386 8.69479 7.02386 9.29639C7.02498 9.89725 7.26445 10.4731 7.68972 10.8976C8.11499 11.3221 8.69131 11.5605 9.29218 11.5605C9.89014 11.5594 10.4635 11.3222 10.8875 10.9006C11.3115 10.479 11.5519 9.90695 11.5563 9.309C11.5585 9.01026 11.5016 8.71404 11.3888 8.4374C11.276 8.16077 11.1096 7.90917 10.8991 7.69715C10.6887 7.48512 10.4383 7.31685 10.1625 7.20202C9.88672 7.08719 9.59092 7.02808 9.29218 7.02809Z" fill="#E5E5E5"/>
<path d="M32.6012 16.7188L25.5442 25.12C25.52 25.1493 25.5028 25.1838 25.4938 25.2208V17.6345C25.4938 17.356 25.3832 17.0889 25.1863 16.892C24.9893 16.695 24.7222 16.5844 24.4437 16.5844H23.8976C25.8293 16.5772 27.6791 15.8038 29.0411 14.4341C30.4032 13.0644 31.1661 11.2102 31.1625 9.27858C31.1589 7.34693 30.389 5.49565 29.0219 4.13105C27.6547 2.76645 25.802 2.00002 23.8703 2.00002C21.9387 2.00002 20.0859 2.76645 18.7188 4.13105C17.3516 5.49565 16.5817 7.34693 16.5781 9.27858C16.5745 11.2102 17.3375 13.0644 18.6995 14.4341C20.0615 15.8038 21.9114 16.5772 23.843 16.5844H9.32162C11.2476 16.5777 13.0925 15.8085 14.4528 14.4451C15.8131 13.0817 16.578 11.235 16.5802 9.30899C16.5824 8.3503 16.3956 7.40058 16.0304 6.51418C15.6651 5.62778 15.1287 4.8221 14.4518 4.14323C13.7749 3.46436 12.9708 2.92565 12.0854 2.55788C11.2001 2.19012 10.2509 2.00052 9.29221 1.99997C8.33333 2.00052 7.38395 2.19009 6.49838 2.55781C5.6128 2.92552 4.80839 3.46418 4.13113 4.143C3.45388 4.82181 2.91707 5.62745 2.55139 6.51387C2.18572 7.40029 1.99835 8.3501 2.00001 9.30899C2 11.2382 2.76496 13.0888 4.12719 14.455C5.48941 15.8211 7.33775 16.5914 9.26701 16.597H3.73485V29.6188C3.7404 30.7827 4.20666 31.897 5.03163 32.718C5.8566 33.5391 6.97315 34 8.13705 34H24.4437C24.7215 34 24.988 33.8899 25.1848 33.6939C25.3816 33.4979 25.4927 33.2318 25.4938 32.954V25.3636C25.5028 25.4018 25.52 25.4377 25.5442 25.4686L32.6012 33.8698C32.6376 33.9115 32.6858 33.9412 32.7394 33.9549C32.793 33.9686 32.8495 33.9657 32.9014 33.9466C32.9534 33.9275 32.9983 33.893 33.0302 33.8478C33.0621 33.8025 33.0795 33.7487 33.0801 33.6933V16.891C33.081 16.8349 33.0644 16.7799 33.0325 16.7338C33.0006 16.6876 32.9551 16.6526 32.9023 16.6336C32.8495 16.6146 32.7921 16.6126 32.7381 16.6279C32.6841 16.6432 32.6362 16.675 32.6012 16.7188ZM5.34367 9.30899C5.34478 8.26211 5.76114 7.25843 6.5014 6.51818C7.24165 5.77793 8.24534 5.36154 9.29221 5.36043C10.3387 5.36154 11.342 5.77806 12.0815 6.51844C12.8211 7.25881 13.2366 8.26249 13.2366 9.30899C13.2354 10.3547 12.8195 11.3573 12.0801 12.0968C11.3406 12.8363 10.338 13.2522 9.29221 13.2533C8.24606 13.2522 7.24301 12.8364 6.50288 12.0971C5.76275 11.3577 5.34589 10.3551 5.34367 9.30899ZM19.9281 9.30899C19.9281 8.52869 20.1595 7.76593 20.5931 7.11719C21.0267 6.46846 21.643 5.96289 22.364 5.66448C23.0849 5.36606 23.8782 5.2882 24.6435 5.44073C25.4087 5.59326 26.1115 5.96936 26.663 6.52141C27.2144 7.07346 27.5898 7.77666 27.7415 8.54207C27.8932 9.30747 27.8145 10.1007 27.5153 10.8213C27.2161 11.542 26.7099 12.1577 26.0607 12.5906C25.4115 13.0235 24.6485 13.2542 23.8682 13.2533C22.8232 13.2511 21.8216 12.8347 21.0831 12.0954C20.3445 11.356 19.9292 10.354 19.9281 9.30899Z" fill="#E5E5E5"/>
</svg>
