<svg width="36" height="36" viewBox="0 0 36 36" fill="none" xmlns="http://www.w3.org/2000/svg">
<path d="M30.9422 11.9114H30.3415C31.9039 14.1385 32.6197 16.8512 32.3705 19.6982L32.1851 21.8517C33.3162 20.5129 34 18.7779 34 16.8896V14.9693C34 13.2822 32.6325 11.9114 30.9422 11.9114Z" fill="#E5E5E5"/>
<path d="M11.0552 8.67469C13.228 9.09646 15.7362 9.3361 18.4106 9.3361C21.085 9.3361 23.59 9.09646 25.7628 8.67469C26.0152 8.62676 26.0727 8.28807 25.849 8.15706C24.0885 7.12182 22.0915 6.44763 19.9603 6.22077L20.3916 5.22067C20.4012 5.16316 20.4044 5.10564 20.4044 5.05132C20.4268 4.18862 19.8932 3.38023 19.0752 3.10864C18.8483 3.03515 18.6215 3 18.4074 3C17.8578 3 17.3594 3.22366 16.9983 3.58792C16.8609 3.72212 16.7459 3.87868 16.6532 4.04803C16.4999 4.32921 16.4136 4.65512 16.4136 5.0002C16.4136 5.07369 16.4136 5.14718 16.4296 5.21747C16.4232 5.22067 16.4232 5.22386 16.4296 5.22706L16.8545 6.22077C14.7265 6.44763 12.7263 7.12182 10.969 8.15706C10.7453 8.28807 10.8028 8.62676 11.0552 8.67469Z" fill="#E5E5E5"/>
<path d="M26.3507 9.82178H26.3475C26.2389 9.86971 26.127 9.90805 26.0056 9.93041C23.6923 10.3777 21.0658 10.6142 18.4106 10.6142C15.7554 10.6142 13.1225 10.3777 10.8124 9.93041C10.691 9.90485 10.5792 9.86971 10.4705 9.82178C9.56627 10.3905 8.76427 11.0967 8.08689 11.9114C8.03257 11.9753 7.97825 12.0424 7.93032 12.1095C8.25624 12.8924 8.60771 13.7008 9.1445 14.5922C9.20202 14.6849 9.26273 14.7807 9.32343 14.8798C9.37456 14.9629 9.42888 15.0491 9.48639 15.1418C9.48639 15.1418 9.49278 15.1514 9.50237 15.1674C9.67171 15.4453 9.85703 15.7617 10.0424 16.1291C10.3203 16.6915 10.6399 17.4519 10.838 18.2955C11.2022 19.8547 11.1511 21.6984 9.65574 23.0947C9.80591 22.5611 9.89218 21.9252 9.89538 21.1871C9.89538 17.9216 8.70676 16.3368 8.05174 15.2536C8.02938 15.2153 8.00701 15.1769 7.98464 15.1418C7.614 14.5155 7.32324 13.9212 7.0772 13.3653C6.681 12.477 6.39023 11.6814 6.03237 10.988C5.99403 10.9113 5.95249 10.8379 5.90776 10.7739C5.82149 10.6334 5.73202 10.5151 5.62978 10.4193C5.59143 10.3841 5.55309 10.349 5.51155 10.3202C5.47002 10.2883 5.42848 10.2595 5.38694 10.2372C5.29747 10.186 5.20162 10.1445 5.09937 10.1125C4.85334 10.0327 4.5498 10.0039 4.16637 10.0039C3.97785 10.0039 3.77017 10.0103 3.54011 10.0231C2.08629 10.0998 1.69967 10.4353 2.22049 11.3842C2.79243 12.4195 3.54011 13.1352 3.54011 17.9408C3.54011 18.6693 3.57526 19.3531 3.64236 19.9889C3.66792 20.2254 3.69987 20.4554 3.73182 20.6759C3.76697 20.8932 3.80212 21.1009 3.84685 21.3022C3.92034 21.6792 4.013 22.0339 4.11844 22.363C4.16318 22.5068 4.2111 22.6441 4.26542 22.7751C4.54341 23.5196 4.90446 24.1171 5.33901 24.5517C5.39014 24.606 5.44445 24.6539 5.49877 24.7019C5.87581 25.0342 6.30716 25.245 6.78005 25.3217C6.96218 25.7723 7.17626 26.2068 7.4159 26.6254C9.40651 30.1369 13.18 32.4758 17.4584 32.4758H19.3596C24.9448 32.4758 29.6673 28.4914 30.6994 23.1106C30.7761 22.7208 30.8304 22.3182 30.8687 21.9124L31.07 19.5991C31.3256 16.6435 30.4214 13.9436 28.7311 11.9114C28.0537 11.0967 27.2517 10.3937 26.3507 9.82178Z" fill="#E5E5E5"/>
</svg>
