<svg width="36" height="36" viewBox="0 0 36 36" fill="none" xmlns="http://www.w3.org/2000/svg">
<path d="M33.68 5H2.32955C2.15037 5 2.00958 5.14399 2.00958 5.31997V8.83962C2.00958 9.0156 2.15037 9.15958 2.32955 9.15958H33.68C33.856 9.15958 34 9.0156 34 8.83962V5.31997C34 5.14399 33.856 5 33.68 5ZM26.4007 8.05569C25.9144 8.05569 25.5208 7.66213 25.5208 7.17578C25.5208 6.68943 25.9144 6.29587 26.4007 6.29587C26.8871 6.29587 27.2807 6.68943 27.2807 7.17578C27.2807 7.66213 26.8839 8.05569 26.4007 8.05569ZM29.1205 8.05569C28.6341 8.05569 28.2406 7.66213 28.2406 7.17578C28.2406 6.68943 28.6341 6.29587 29.1205 6.29587C29.6068 6.29587 30.0004 6.68943 30.0004 7.17578C30.0004 7.66213 29.6036 8.05569 29.1205 8.05569ZM31.8402 8.05569C31.3538 8.05569 30.9603 7.66213 30.9603 7.17578C30.9603 6.68943 31.3538 6.29587 31.8402 6.29587C32.3265 6.29587 32.7201 6.68943 32.7201 7.17578C32.7201 7.66213 32.3234 8.05569 31.8402 8.05569Z" fill="#E5E5E5"/>
<path d="M33.6768 10.4395H2.31997C2.14079 10.4395 2 10.5834 2 10.7594V31.2374C2 31.4134 2.14079 31.5573 2.31997 31.5573H33.6768C33.8528 31.5573 33.9968 31.4134 33.9968 31.2374V10.7594C33.9968 10.5834 33.8528 10.4395 33.6768 10.4395ZM17.3617 29.1672L10.1112 25.4652L9.47445 15.7925L17.3617 18.4387V29.1672ZM10.9015 14.9222L18.0016 12.8264L25.1017 14.9222L18.0016 17.3028L10.9015 14.9222ZM25.892 25.4652L18.6415 29.1672V18.4387L26.5287 15.7925L25.892 25.4652Z" fill="#E5E5E5"/>
</svg>
