<svg width="36" height="36" viewBox="0 0 36 36" fill="none" xmlns="http://www.w3.org/2000/svg">
<path d="M30.942 12.175H30.341C31.903 14.402 32.619 17.114 32.371 19.962L32.186 22.116C33.317 20.779 34 19.043 34 17.153V15.233C34 13.546 32.632 12.175 30.942 12.175Z" fill="#E5E5E5"/>
<path d="M11.055 8.93699C13.228 9.35899 15.736 9.59799 18.41 9.59799C21.081 9.59799 23.589 9.35799 25.762 8.93699C26.014 8.88899 26.072 8.54999 25.848 8.41899C24.087 7.38399 22.09 6.70999 19.959 6.48299L20.39 5.48299C20.4 5.42599 20.403 5.36799 20.403 5.31399C20.425 4.45099 19.892 3.64299 19.074 3.37099C18.847 3.29799 18.62 3.26199 18.406 3.26199C17.856 3.26199 17.358 3.48599 16.997 3.84999C16.86 3.98399 16.745 4.14099 16.652 4.30999C16.499 4.59099 16.412 4.91699 16.412 5.26199C16.412 5.33499 16.415 5.40899 16.428 5.47899C16.422 5.48199 16.422 5.48499 16.428 5.48899L16.853 6.48299C14.725 6.70999 12.725 7.38399 10.968 8.41899C10.745 8.54999 10.803 8.88899 11.055 8.93699Z" fill="#E5E5E5"/>
<path d="M26.35 10.084H26.347C26.238 10.132 26.127 10.17 26.005 10.193C23.692 10.64 21.065 10.877 18.41 10.877C15.752 10.877 13.122 10.64 10.812 10.193C10.691 10.167 10.579 10.132 10.47 10.084C9.56601 10.653 8.76401 11.359 8.08601 12.174C8.03201 12.238 7.97701 12.305 7.93001 12.372C8.25601 13.155 8.60701 13.963 9.14401 14.855C9.20201 14.948 9.26201 15.043 9.32301 15.143C9.37401 15.226 9.42801 15.312 9.48601 15.405C9.48601 15.405 9.49201 15.415 9.50201 15.431C9.67101 15.709 9.85701 16.025 10.042 16.393C10.32 16.955 10.64 17.716 10.838 18.559C11.202 20.118 11.151 21.962 9.65601 23.358C9.80601 22.824 9.89201 22.189 9.89601 21.451C9.89601 18.186 8.70701 16.601 8.05201 15.518C8.03001 15.48 8.00701 15.441 7.98501 15.406C7.61401 14.78 7.32401 14.185 7.07801 13.629C6.68201 12.741 6.39101 11.945 6.03301 11.252C5.99501 11.175 5.95301 11.102 5.90901 11.038C5.82301 10.897 5.73301 10.779 5.63101 10.683C5.59301 10.648 5.55401 10.613 5.51301 10.584C5.47201 10.552 5.43001 10.523 5.38901 10.501C5.29901 10.45 5.20401 10.408 5.10101 10.376C4.85501 10.296 4.55201 10.267 4.16801 10.267C3.98001 10.267 3.77201 10.273 3.54201 10.286C2.08801 10.363 1.70201 10.698 2.22201 11.647C2.79401 12.682 3.54201 13.398 3.54201 18.203C3.54201 18.932 3.57701 19.615 3.64401 20.251C3.66901 20.487 3.70101 20.717 3.73301 20.938C3.76801 21.155 3.80301 21.363 3.84801 21.564C3.92101 21.941 4.01401 22.296 4.12001 22.625C4.16501 22.769 4.21301 22.906 4.26701 23.037C4.54501 23.781 4.90601 24.379 5.34101 24.814C5.39201 24.868 5.44601 24.916 5.50101 24.964C5.87801 25.296 6.30901 25.507 6.78201 25.584C6.96401 26.035 7.17801 26.469 7.41801 26.888C9.40901 30.399 13.182 32.738 17.46 32.738H19.361C24.946 32.738 29.669 28.754 30.701 23.373C30.778 22.983 30.832 22.581 30.87 22.175L31.071 19.862C31.327 16.906 30.422 14.207 28.732 12.174C28.053 11.359 27.251 10.656 26.35 10.084ZM24.48 20.66L16.222 25.918C15.892 26.128 15.46 25.891 15.46 25.5V14.984C15.46 14.593 15.892 14.356 16.222 14.566L24.48 19.824C24.786 20.019 24.786 20.465 24.48 20.66Z" fill="#E5E5E5"/>
</svg>
