<svg width="36" height="36" viewBox="0 0 36 36" fill="none" xmlns="http://www.w3.org/2000/svg">
<path d="M30.351 9.495C29.1301 13.8426 26.5227 17.6725 22.9254 20.4023C19.3281 23.132 14.9378 24.6123 10.422 24.618C8.27414 24.6187 6.13936 24.2836 4.09497 23.625C5.21542 26.3948 7.13755 28.7669 9.61494 30.4372C12.0923 32.1075 15.0121 32.9999 18 33C21.9783 33 25.7936 31.4196 28.6066 28.6066C31.4197 25.7935 33 21.9782 33 18C33.0037 14.9614 32.0795 11.9941 30.351 9.495Z" fill="#CDA563"/>
<path d="M29.3251 8.17198C27.9196 6.54702 26.1806 5.24394 24.2263 4.35145C22.2721 3.45896 20.1485 2.99797 18.0001 2.99995C14.0218 2.99995 10.2065 4.58033 7.39346 7.39338C4.58041 10.2064 3.00006 14.0217 3.00006 17.9999C3.00033 19.3637 3.18602 20.7212 3.55205 22.035C5.74611 22.8705 8.07428 23.2985 10.4221 23.298C14.8207 23.2921 19.0869 21.7921 22.5213 19.0439C25.9558 16.2957 28.3548 12.4623 29.3251 8.17198Z" fill="#CDA563"/>
</svg>
