<svg width="36" height="36" viewBox="0 0 36 36" fill="none" xmlns="http://www.w3.org/2000/svg">
<path d="M26.0078 21.3498C27.8576 16.8842 25.7369 11.7645 21.2713 9.91481C16.8056 8.06508 11.686 10.1857 9.83624 14.6514C7.98651 19.117 10.1071 24.2367 14.5728 26.0864C19.0385 27.9361 24.1581 25.8155 26.0078 21.3498Z" fill="#CDA563"/>
<path d="M16.08 7.968H19.92L18 2L16.08 7.968Z" fill="#CDA563"/>
<path d="M18 34L19.92 28.032H16.08L18 34Z" fill="#CDA563"/>
<path d="M28.032 16.08V19.92L34 18L28.032 16.08Z" fill="#CDA563"/>
<path d="M7.968 19.92V16.08L2 18L7.968 19.92Z" fill="#CDA563"/>
<path d="M23.7344 9.54881L26.4512 12.2624L29.3152 6.68481L23.7344 9.54881Z" fill="#CDA563"/>
<path d="M6.68481 29.3152L12.2624 26.4512L9.54881 23.7344L6.68481 29.3152Z" fill="#CDA563"/>
<path d="M26.4512 23.7344L23.7344 26.4512L29.3152 29.3152L26.4512 23.7344Z" fill="#CDA563"/>
<path d="M9.54881 12.2624L12.2624 9.54881L6.68481 6.68481L9.54881 12.2624Z" fill="#CDA563"/>
</svg>
