<?xml version="1.0" encoding="utf-8"?>
<!-- Generator: Adobe Illustrator 26.0.2, SVG Export Plug-In . SVG Version: 6.00 Build 0)  -->
<svg version="1.1" id="Layer_1" xmlns="http://www.w3.org/2000/svg" xmlns:xlink="http://www.w3.org/1999/xlink" x="0px" y="0px"
	 viewBox="0 0 32 32" enable-background="new 0 0 32 32" xml:space="preserve">
<g>
	<polygon fill="#FFFFFF" points="14.582,5.947 14.582,17.527 23.98,17.527 23.98,15.527 16.582,15.527 16.582,5.947 	"/>
	<path opacity="0.5" fill="#FFFFFF" d="M16,0C11.64,0,7.68,1.76,4.8,4.56V0.804h-2V8.02h7.198v-2H6.18C8.72,3.52,12.18,2,16,2
		c7.72,0,14,6.279,14,14c0,7.72-6.28,14-14,14S2,23.72,2,16H0c0,8.84,7.16,16,16,16c8.84,0,16-7.16,16-16S24.84,0,16,0z"/>
</g>
</svg>
