<svg width="36" height="36" viewBox="0 0 36 36" fill="none" xmlns="http://www.w3.org/2000/svg">
<path d="M13.879 22.8146C14.179 23.2457 14.5351 23.4894 14.8351 23.4707C15.1912 23.4519 15.5849 23.0958 15.8849 22.5521C16.8409 20.7712 17.4595 19.0279 18.0594 17.3595C18.903 14.9975 19.7653 12.5605 21.5087 10.2547C23.3458 7.85522 26.2514 6.91792 27.3199 6.65548C27.4887 6.61799 27.5262 6.41178 27.3949 6.2993C24.808 4.23724 21.5649 3 18.0219 3C16.2785 3 14.6101 3.29994 13.0542 3.84357C11.1421 4.51843 9.84862 6.31805 9.79239 8.34262C9.73615 12.2793 10.3548 17.8844 13.879 22.8146Z" fill="#E5E5E5"/>
<path d="M27.8261 10.1235C26.2327 10.3297 25.0517 11.4732 24.3581 12.3918C22.9521 14.2664 22.2398 16.2347 21.4149 18.5405C20.7588 20.3401 20.1027 22.2147 19.0155 24.2393C18.1156 25.9077 16.6722 27.6135 15.06 27.726C14.9663 27.726 14.8913 27.726 14.7976 27.726C13.3354 27.726 11.9294 26.2638 10.9547 24.8766C7.33667 19.7964 6.32438 14.2476 6.21191 9.95477C6.21191 9.56111 5.70576 9.42989 5.48081 9.74857C3.34376 12.8604 2.35022 17.2095 3.45624 21.5961C4.86219 27.2011 9.39873 31.419 14.6101 32.5812C24.3581 34.7745 33 27.3511 33 17.9593C33 16.066 32.6438 14.2664 32.0065 12.598C31.5378 11.3795 30.5068 10.4422 29.232 10.161C28.7821 10.086 28.2947 10.0673 27.8261 10.1235Z" fill="#E5E5E5"/>
</svg>
