<svg width="36" height="36" viewBox="0 0 36 36" fill="none" xmlns="http://www.w3.org/2000/svg">
<path d="M28.895 5.75755L16.1628 10.0336L3.42749 5.75755L16.1628 2L28.895 5.75755Z" fill="#96DBB3"/>
<path d="M14.937 10.9714L3.0114 22.0328L2 6.62813L14.937 10.9714Z" fill="#96DBB3"/>
<path d="M15.5227 12.1748V29.3719L3.5683 23.2651L15.5227 12.1748Z" fill="#96DBB3"/>
<path d="M30.3225 6.62813L29.4391 20.1636C28.8246 20.0036 28.1781 19.9204 27.5155 19.9204C23.2779 19.9204 19.834 23.3643 19.834 27.6019C19.834 27.6755 19.834 27.7492 19.8404 27.8228L16.803 29.3719V11.1698L30.3225 6.62813Z" fill="#96DBB3"/>
<path d="M28.3957 23.009H26.6353V32.1948H28.3957V23.009Z" fill="#96DBB3"/>
<path d="M32.1052 28.4789V26.7185H22.9194V28.4789H32.1052Z" fill="#96DBB3"/>
</svg>
