<svg width="36" height="36" viewBox="0 0 36 36" fill="none" xmlns="http://www.w3.org/2000/svg">
<path d="M32.8868 12.1243C32.4545 11.0315 31.9098 10 31.263 9.0434C28.3864 4.79489 23.5183 2 18 2C15.0247 2 12.2434 2.81021 9.85702 4.22638C9.16255 4.6383 8.50213 5.09787 7.88255 5.60851C4.29106 8.53957 2 13.0026 2 18C2 26.8374 9.16596 34 18 34C26.834 34 34 26.8374 34 18C34 15.9234 33.6051 13.9421 32.8868 12.1243ZM18 3.87234C22.0102 3.87234 25.6323 5.55064 28.206 8.24C27.6238 8.19915 27.0621 8.24 26.5208 8.35234C22.4153 9.21021 20.4987 13.9932 18.8102 18.2145C17.7004 20.9821 16.5566 23.8417 15.2902 23.8417C14.4562 23.8417 13.0468 22.4289 11.777 19.2732C10.4255 15.92 9.49957 11.2221 9.66979 6.59574C12.0051 4.8834 14.8885 3.87234 18 3.87234V3.87234ZM18 32.1277C10.2111 32.1277 3.87234 25.7889 3.87234 18C3.87234 14.2077 5.37702 10.7626 7.81447 8.21957C7.87234 12.5804 8.77787 16.8323 10.0409 19.9745C10.9055 22.1157 12.7336 25.7106 15.2902 25.714H15.2936C17.823 25.714 19.086 22.5617 20.5464 18.9123C22.0647 15.1268 23.7804 10.8374 26.9055 10.1838C27.8179 9.99319 28.8494 10.1157 29.9932 10.5447C31.3481 12.7098 32.1277 15.2664 32.1277 18C32.1277 25.7889 25.7923 32.1277 18 32.1277V32.1277Z" fill="#A9A9A9"/>
</svg>
