<svg width="36" height="36" viewBox="0 0 36 36" fill="none" xmlns="http://www.w3.org/2000/svg">
<path d="M18.8819 2H17.1213V10.9691H18.8819V2Z" fill="#CDA563"/>
<path d="M18.8819 25.0309H17.1213V34H18.8819V25.0309Z" fill="#CDA563"/>
<path d="M34 17.1213H25.0309V18.8819H34V17.1213Z" fill="#CDA563"/>
<path d="M10.9691 17.1213H2V18.8819H10.9691V17.1213Z" fill="#CDA563"/>
<path d="M23.5963 22.354L22.3514 23.5989L27.3355 28.583L28.5804 27.3381L23.5963 22.354Z" fill="#CDA563"/>
<path d="M8.66639 7.42251L7.42151 8.66739L12.4056 13.6514L13.6504 12.4066L8.66639 7.42251Z" fill="#CDA563"/>
<path d="M12.4064 22.3494L7.42236 27.3334L8.66724 28.5783L13.6513 23.5942L12.4064 22.3494Z" fill="#CDA563"/>
<path d="M27.3348 7.42266L22.3507 12.4067L23.5956 13.6516L28.5796 8.66754L27.3348 7.42266Z" fill="#CDA563"/>
<path d="M19.4767 21.5434C21.4366 20.7316 22.3673 18.4846 21.5555 16.5247C20.7437 14.5648 18.4967 13.6341 16.5368 14.4459C14.5769 15.2577 13.6462 17.5047 14.458 19.4646C15.2698 21.4245 17.5168 22.3552 19.4767 21.5434Z" fill="#E5E5E5"/>
</svg>
