<svg width="36" height="36" viewBox="0 0 36 36" fill="none" xmlns="http://www.w3.org/2000/svg">
<path d="M12.764 20.6422C13.0871 20.6262 13.4455 20.2999 13.7206 19.8072C14.5908 18.1851 15.1539 16.5983 15.6978 15.0786C16.4656 12.9287 17.2494 10.7084 18.8362 8.6097C20.5063 6.4246 23.1521 5.57039 24.1215 5.33365C24.275 5.29845 24.3102 5.1129 24.1886 5.01052C21.8372 3.12615 18.8874 2 15.6658 2C14.0789 2 12.5625 2.27194 11.1452 2.76783C9.40478 3.38209 8.23065 5.02012 8.17946 6.8661C8.12827 10.4525 8.69134 15.5553 11.897 20.0439C12.169 20.4374 12.4953 20.6582 12.7672 20.6422H12.764Z" fill="#E5E5E5"/>
<path d="M29.2915 15.6225C29.2915 17.5037 28.9107 19.2985 28.2229 20.9301L22.7905 17.4685C22.5506 17.3117 22.269 17.2317 21.9747 17.2317C21.1429 17.2317 20.4647 17.9068 20.4647 18.7386V28.4196C18.078 29.325 15.3714 29.5713 12.5624 28.9379C7.82112 27.8789 3.69405 24.0366 2.41434 18.9337C1.40977 14.9379 2.31196 10.9771 4.25712 8.14579C4.46188 7.85466 4.92257 7.97303 4.92257 8.33135C5.02495 12.2409 5.94634 17.2957 9.2384 21.9219C10.1246 23.1856 11.4043 24.5165 12.732 24.5165H12.9719C14.4372 24.4141 15.7521 22.8593 16.5711 21.3396C17.5597 19.4968 18.1548 17.7884 18.753 16.1504C19.5017 14.0517 20.1511 12.2601 21.4308 10.5516C22.0611 9.71343 23.136 8.67367 24.5853 8.48491C25.0108 8.43372 25.4555 8.45292 25.865 8.5201C27.0232 8.77605 27.9606 9.63025 28.3893 10.7404C28.9683 12.2601 29.2915 13.8981 29.2915 15.6225Z" fill="#E5E5E5"/>
<path d="M33.892 26.4425L29.2115 29.4242L23.5615 33.0202L22.0963 33.9544C22.0579 33.98 22.0163 33.9928 21.9747 33.9928C21.8563 33.9928 21.7444 33.8968 21.7444 33.7624V18.7386C21.7444 18.6043 21.8563 18.5115 21.9747 18.5115C22.0163 18.5115 22.0579 18.5211 22.0963 18.5467L32.35 25.0764L33.892 26.0586C34.036 26.1481 34.036 26.3529 33.892 26.4425Z" fill="#06AF88"/>
</svg>
