<svg width="36" height="36" viewBox="0 0 36 36" fill="none" xmlns="http://www.w3.org/2000/svg">
<path d="M25.7042 12.0129H10.6752C11.6045 9.30225 12.5659 6.54662 12.9903 5.46945C13.4161 4.45244 14.13 3.58213 15.0441 2.96569C15.9582 2.34924 17.0326 2.01357 18.135 2C19.2246 1.98912 20.2925 2.30412 21.2018 2.90455C22.111 3.50499 22.8201 4.36347 23.2379 5.36978C23.6817 6.44373 24.7074 9.25724 25.7042 12.0129Z" fill="#CDA563"/>
<path d="M19.6688 23.5466C17.4656 25.2917 15.0759 26.7874 12.5434 28.0064C10.8328 28.8296 8.62377 29.5273 7.05786 29.5016C4.68487 29.5434 2.95818 28.0643 2.99998 25.6174C2.93889 22.135 6.24435 17.0997 9.58518 13.2862H12.0032C11.5177 13.8006 11.0386 14.3215 10.5852 14.8521C10.1318 15.3826 9.71381 15.8842 9.31831 16.3955C9.29276 16.4239 9.26913 16.454 9.24757 16.4855C6.88744 19.3794 2.17361 27.0096 6.51123 27.6945C6.59483 27.6945 6.68165 27.7138 6.77168 27.7202C6.84555 27.7252 6.91967 27.7252 6.99354 27.7202H7.22827C7.46622 27.7202 7.71059 27.6849 7.95175 27.6527C8.10609 27.6313 8.26364 27.6024 8.42442 27.5659L8.5691 27.537C9.23499 27.3861 9.88852 27.1851 10.5241 26.9357C12.0335 26.3366 13.4854 25.6015 14.8617 24.7395L14.9646 24.6752L15.1704 24.5466C16.2122 23.9035 17.1897 23.209 18.1833 22.4502C19.7259 21.2809 21.1989 20.0226 22.5948 18.6817C22.5241 19.6013 22.4244 20.4984 22.299 21.3633C21.4437 22.119 20.5723 22.8489 19.672 23.5402L19.6688 23.5466Z" fill="#CDA563"/>
<path d="M32.2829 28.4855C30.2958 30.209 27.5562 29.4855 25.0161 28.5338C25.2154 27.9968 25.4019 27.4309 25.5755 26.8424C35.3408 30.6463 31.2604 21.5788 27.1318 16.4984C27.1091 16.4658 27.0844 16.4346 27.0578 16.4051C26.6623 15.8939 26.2251 15.3698 25.791 14.8617C25.791 19.3119 25.3215 23.9132 23.8328 28.0193C21.4566 34.8585 16.2958 36.5756 13.0257 29.2186C13.5552 28.9721 14.0911 28.7052 14.6334 28.418C16.8392 33.4823 19.5627 33.4823 21.7685 28.418C22.8971 25.7781 23.4566 22.9067 23.7813 20.0161C23.9389 18.5305 24.0257 16.9421 24.0321 15.3987C24.0321 15.1994 24.0321 15 24.0321 14.8006C24.0321 14.3055 24.0321 13.8039 24 13.3022H26.7942L27.1447 13.6977C27.8392 14.5048 28.4984 15.3055 29.1222 16.1511C32.0868 20.2219 35.0482 25.6013 32.2829 28.4855Z" fill="#CDA563"/>
</svg>
