<svg width="36" height="36" viewBox="0 0 36 36" fill="none" xmlns="http://www.w3.org/2000/svg">
<path d="M18 2C9.1648 2 2 9.1648 2 18C2 26.8352 9.1648 34 18 34C26.8352 34 34 26.8352 34 18C34 9.1648 26.8352 2 18 2ZM18 32.24C10.1472 32.24 3.76 25.8528 3.76 18C3.76 10.1472 10.1472 3.76 18 3.76C25.8528 3.76 32.24 10.1472 32.24 18C32.24 25.8528 25.8528 32.24 18 32.24Z" fill="#E5E5E5"/>
<path d="M17.9968 9.89441C17.1264 9.89441 16.416 10.6016 16.416 11.4752C16.416 12.3488 17.1264 13.0592 17.9968 13.0592C18.8672 13.0592 19.5808 12.3488 19.5808 11.4752C19.5808 10.6016 18.8704 9.89441 17.9968 9.89441Z" fill="#E5E5E5"/>
<path d="M19.0912 15.2576H16.912C16.753 15.2576 16.624 15.3865 16.624 15.5456V25.8144C16.624 25.9735 16.753 26.1024 16.912 26.1024H19.0912C19.2503 26.1024 19.3792 25.9735 19.3792 25.8144V15.5456C19.3792 15.3865 19.2503 15.2576 19.0912 15.2576Z" fill="#E5E5E5"/>
</svg>
