<svg width="36" height="36" viewBox="0 0 36 36" fill="none" xmlns="http://www.w3.org/2000/svg">
<path d="M19.3635 2H17.6022V10.9663H19.3635V2Z" fill="#CDA563"/>
<path d="M9.79184 4.54299L8.36697 5.57822L13.6372 12.8321L15.0621 11.7969L9.79184 4.54299Z" fill="#CDA563"/>
<path d="M3.54413 12.2249L2.99988 13.8999L11.5273 16.6706L12.0716 14.9956L3.54413 12.2249Z" fill="#CDA563"/>
<path d="M11.5319 19.3407L3.00446 22.1114L3.54871 23.7865L12.0761 21.0157L11.5319 19.3407Z" fill="#CDA563"/>
<path d="M13.6486 23.1754L8.37836 30.4293L9.80322 31.4645L15.0735 24.2107L13.6486 23.1754Z" fill="#CDA563"/>
<path d="M19.3795 25.0337H17.6182V34H19.3795V25.0337Z" fill="#CDA563"/>
<path d="M23.3409 23.1709L21.916 24.2061L27.1862 31.46L28.6111 30.4247L23.3409 23.1709Z" fill="#CDA563"/>
<path d="M25.4497 19.3261L24.9054 21.0011L33.4329 23.7719L33.9771 22.0968L25.4497 19.3261Z" fill="#CDA563"/>
<path d="M33.4323 12.2113L24.9049 14.982L25.4492 16.6571L33.9766 13.8863L33.4323 12.2113Z" fill="#CDA563"/>
<path d="M27.1765 4.53269L21.9063 11.7866L23.3311 12.8218L28.6014 5.56792L27.1765 4.53269Z" fill="#CDA563"/>
</svg>
