<svg width="36" height="36" viewBox="0 0 36 36" fill="none" xmlns="http://www.w3.org/2000/svg">
<path d="M33.9904 29.2084C33.9904 31.2974 26.8246 32.9897 17.9952 32.9897C9.16586 32.9897 2.00001 31.2974 2.00001 29.2084C1.99742 27.1056 2.41072 25.0231 3.21614 23.0806C4.02155 21.1382 5.20318 19.3742 6.693 17.8902L7.72309 17.3624L7.79987 17.3208L7.82866 17.404L8.78838 20.3887L9.99761 24.1731L11.2132 20.3887L12.173 17.404L12.2018 17.3208L12.2785 17.3624L15.0681 18.7924L18.6062 20.6094L16.7988 17.0681L15.3688 14.2817L15.3272 14.2017L15.4136 14.1761L18.3951 13.2164C22.567 13.3208 26.533 15.0515 29.4467 18.0392C32.3603 21.027 33.9909 25.0352 33.9904 29.2084Z" fill="#E5E5E5"/>
<path d="M9.96878 8.26431C9.23027 8.26368 8.50817 8.4821 7.89381 8.89193C7.27945 9.30176 6.80045 9.8846 6.5174 10.5667C6.23435 11.2488 6.15996 11.9996 6.30365 12.724C6.44733 13.4484 6.80264 14.1139 7.32462 14.6363C7.8466 15.1587 8.5118 15.5146 9.23608 15.6589C9.96035 15.8032 10.7112 15.7295 11.3935 15.447C12.0759 15.1645 12.6591 14.686 13.0695 14.072C13.4798 13.458 13.6989 12.7361 13.6989 11.9976C13.6989 11.008 13.306 10.0589 12.6065 9.3589C11.9071 8.65886 10.9584 8.26516 9.96878 8.26431Z" fill="#CDA563"/>
<path d="M10.0072 4L9.04749 6.98151H10.9669L10.0072 4Z" fill="#CDA563"/>
<path d="M10.0072 19.9952L10.9669 17.0105H9.04749L10.0072 19.9952Z" fill="#CDA563"/>
<path d="M15.0201 12.9573L18.0048 11.9976L15.0201 11.0379V12.9573Z" fill="#CDA563"/>
<path d="M4.99109 11.0379L2.00958 11.9976L4.99109 12.9573V11.0379Z" fill="#CDA563"/>
<path d="M15.6599 6.34171L12.8735 7.77168L14.2299 9.13127L15.6599 6.34171Z" fill="#CDA563"/>
<path d="M4.35132 17.6535L7.13768 16.2203L5.78129 14.8639L4.35132 17.6535Z" fill="#CDA563"/>
<path d="M12.8735 16.2203L15.6599 17.6535L14.2299 14.8639L12.8735 16.2203Z" fill="#CDA563"/>
<path d="M7.13768 7.77168L4.35132 6.34171L5.78129 9.13127L7.13768 7.77168Z" fill="#CDA563"/>
</svg>
