<svg width="64" height="64" viewBox="0 0 64 64" fill="none" xmlns="http://www.w3.org/2000/svg">
<path d="M4.40054 33.3751L2 33.5011C2.11833 35.8988 2.52125 38.2741 3.20027 40.5767L3.6744 40.4327C4.04048 39.3704 4.43057 38.3142 4.87467 37.276C4.62631 35.9882 4.46787 34.6848 4.40054 33.3751ZM4.67658 19.488C3.64767 21.6608 2.91496 23.9618 2.49809 26.3295L4.85064 26.7796C5.26527 24.6079 5.94028 22.4942 6.86108 20.4842L4.67658 19.488ZM13.5286 8.29541C11.6342 9.77654 9.92193 11.4767 8.42742 13.3605L10.3119 14.8488C11.6868 13.1148 13.2621 11.5497 15.005 10.1859L13.5286 8.29541ZM26.5395 2.45611C24.1761 2.88967 21.8731 3.60496 19.68 4.58662L20.6642 6.77705C22.6806 5.87438 24.7983 5.21752 26.9716 4.82061L26.5395 2.45611ZM33.7411 2.01201L33.6031 4.41255C35.017 4.50244 36.4216 4.70311 37.8041 5.01269C38.7243 4.65261 39.6505 4.31657 40.5827 4.0045L40.7927 3.30825C38.4934 2.58906 36.1157 2.14983 33.7111 2L33.7411 2.01201Z" fill="#96DBB3"/>
<path d="M9.77768 38.0559C11.2073 37.4161 12.7608 37.1004 14.3267 37.1317C20.319 37.1254 26.0639 34.7422 30.3011 30.505C34.5382 26.2679 36.9214 20.5229 36.9278 14.5307C36.898 12.9796 37.2418 11.4439 37.93 10.0536C39.0005 8.04846 40.778 6.51277 42.9172 5.74463C34.1252 8.38029 26.1137 13.1321 19.5849 19.5835C13.0561 26.0349 8.20911 33.9891 5.46875 42.749C5.54634 42.528 5.63648 42.3116 5.73878 42.1008C6.57096 40.3219 8 38.8908 9.77768 38.0559V38.0559Z" fill="#E35B5B"/>
<path d="M49.6805 7.68295C48.9755 7.41268 48.227 7.27439 47.472 7.2749H47.436C46.8838 7.2749 39.3281 7.40699 39.3281 14.5366C39.3281 21.1674 36.6941 27.5267 32.0054 32.2154C27.3166 36.9041 20.9574 39.5382 14.3266 39.5382C10.8158 39.5382 8.7933 41.1645 7.85109 43.265C7.5716 43.8981 7.37982 44.5665 7.28099 45.2515C7.06963 46.7269 7.23474 48.2319 7.76106 49.6265C10.3159 53.1246 13.5979 56.0281 17.3815 58.1375C21.165 60.2469 25.3603 61.5121 29.6792 61.8461C33.9981 62.1802 38.3382 61.5752 42.401 60.0727C46.4639 58.5702 50.1533 56.2058 53.2157 53.1421C56.2781 50.0784 58.6409 46.388 60.1417 42.3245C61.6424 38.2609 62.2455 33.9207 61.9096 29.6019C61.5737 25.2832 60.3067 21.0882 58.1957 17.3056C56.0847 13.523 53.1797 10.2423 49.6805 7.68896V7.68295Z" fill="#96DBB3"/>
</svg>
