<svg width="36" height="36" viewBox="0 0 36 36" fill="none" xmlns="http://www.w3.org/2000/svg">
<path d="M18 13.5424L17.9744 13.536L17.9968 13.5456H18.0032L18.0256 13.5392L18.096 13.5136L18 13.5424ZM17.1072 14.6176L17.3472 14.7008L17.1072 14.6176ZM18.0032 13.5456H17.9968L17.9744 13.536L17.9488 13.5296L17.8976 13.5136L17.9968 13.5488H18.0032L18.0256 13.5392L18.0032 13.5456ZM17.1072 14.6208L17.3472 14.704L17.1072 14.6208ZM17.1072 14.624L17.3472 14.7072L17.1072 14.624ZM17.1072 14.6208L17.3472 14.704L17.1072 14.6208ZM17.1072 14.6176L17.3472 14.7008L17.1072 14.6176ZM18 13.5424L17.9744 13.536L17.9488 13.5296L17.8976 13.5136L17.9968 13.5488H18.0032L18.0256 13.5392L18.096 13.5136L18 13.5424ZM18.6496 14.6976L18.896 14.6208L18.6496 14.6976ZM18.6496 14.6976L18.896 14.6208L18.6496 14.6976ZM18 13.5424L17.9744 13.536L17.9488 13.5296L17.8976 13.5136L17.9968 13.5488H18.0032L18.0256 13.5392L18.096 13.5136L18 13.5424ZM17.1072 14.6176L17.3472 14.7008L17.1072 14.6176ZM17.1072 14.6208L17.3472 14.704L17.1072 14.6208ZM17.1072 14.624L17.3472 14.7072L17.1072 14.624ZM18.0032 2L2 6.72L3.2576 25.8784L18 33.408L21.3216 31.712C20.9792 31.2288 20.6912 30.7008 20.4704 30.1408L18.896 30.944V28.192L18.6496 28.32L18.0032 28.6496L17.3472 28.3168L17.1072 28.192V30.944L4.976 24.7488L3.9232 8.6464L6.6656 9.568L8.1792 9.12L9.6512 8.6848L5.9168 7.4336L18.0032 3.8624L30.0832 7.4336L26.3488 8.6848L27.8272 9.12L29.3376 9.568L32.0832 8.6464L31.2992 20.5696C31.9264 20.9152 32.5024 21.3472 33.008 21.8528L34 6.7168L18.0032 2ZM18.6496 14.6976L18.896 14.6208L18.6496 14.6976ZM18 13.5424L17.9744 13.536L17.9488 13.5296L17.8976 13.5136L17.9968 13.5488H18.0032L18.0256 13.5392L18.096 13.5136L18 13.5424ZM17.1072 14.6176L17.3472 14.7008L17.1072 14.6176ZM17.1072 14.6208L17.3472 14.704L17.1072 14.6208ZM17.1072 14.624L17.3472 14.7072L17.1072 14.624ZM17.1072 14.624L17.3472 14.7072L17.1072 14.624ZM17.1072 14.6208L17.3472 14.704L17.1072 14.6208ZM17.1072 14.6176L17.3472 14.7008L17.1072 14.6176ZM18 13.5424L17.9744 13.536L17.9488 13.5296L17.8976 13.5136L17.9968 13.5488H18.0032L18.0256 13.5392L18.096 13.5136L18 13.5424ZM18.6496 14.6976L18.896 14.6208L18.6496 14.6976ZM18.6496 14.6976L18.896 14.6208L18.6496 14.6976ZM18.0032 13.5456H17.9968L17.9744 13.536L17.9488 13.5296L17.8976 13.5136L17.9968 13.5488H18.0032L18.0256 13.5392L18.0032 13.5456ZM17.1072 14.6208L17.3472 14.704L17.1072 14.6208ZM17.1072 14.624L17.3472 14.7072L17.1072 14.624Z" fill="#E5E5E5"/>
<path d="M28.0896 11.5328L27.5424 19.6224C23.7248 19.6544 20.56 22.4896 20.0128 26.1632L18.6496 26.8576V14.6976L28.0896 11.5328Z" fill="#96DBB3"/>
<path d="M18 7.5808L8.54718 10.368L17.9008 13.5072L17.9968 13.5424H18.0032L18.0992 13.5104L27.4624 10.368L18.0032 7.5808H18Z" fill="#96DBB3"/>
<path d="M8.64643 22.4128L17.3472 26.8544V14.6976L7.90723 11.5296L8.64643 22.4128Z" fill="#96DBB3"/>
<path d="M18 12.528H18.0032L18.096 12.4992L17.9968 12.528H18Z" fill="#96DBB3"/>
<path d="M17.1072 14.6176L17.3472 14.7008L17.1072 14.6176Z" fill="#96DBB3"/>
<path d="M17.7888 12.3968L17.888 12.432L17.7856 12.3968H17.7888Z" fill="#96DBB3"/>
<path d="M32.3072 26.4256H28.5984V22.7136H28.3744H27.0624H26.8384V26.4256H23.1264V26.6784V27.9584V28.1856H26.8384V31.8944H27.0624H28.3744H28.5984V28.1856H32.3072V26.4256Z" fill="#96DBB3"/>
</svg>
