<svg width="36" height="36" viewBox="0 0 36 36" fill="none" xmlns="http://www.w3.org/2000/svg">
<path d="M10.9728 27.344C5.65762 26.7296 2.01282 25.424 2.01282 23.9456C2.0128 19.9237 3.52746 16.0493 6.25524 13.0938C8.98302 10.1383 12.7238 8.31855 16.7328 7.9968C13.3664 10.9248 11.0272 18.384 10.9728 27.344Z" fill="#CDA563"/>
<path d="M34 23.9488C34 25.0528 32.0064 26.0448 28.8192 26.736C28.3744 26.832 27.904 26.9248 27.4144 27.008C24.3017 27.509 21.1527 27.7509 18 27.7312C16.0224 27.7312 14.128 27.648 12.3776 27.4912C12.4192 16.9504 15.8464 8.08 19.8976 8.08C19.9786 8.07522 20.0598 8.07522 20.1408 8.08L20.4384 8.1216H20.4864C21.7667 8.32072 23.0177 8.67645 24.2112 9.1808C27.1161 10.4044 29.5949 12.4589 31.3363 15.0862C33.0778 17.7135 34.0045 20.7967 34 23.9488Z" fill="#CDA563"/>
</svg>
