<svg width="64" height="64" viewBox="0 0 64 64" fill="none" xmlns="http://www.w3.org/2000/svg">
<path d="M62 34.9945C57.0818 38.9189 52.9314 43.6944 49.7526 49.0866C47.9298 52.2384 46.4177 55.5552 45.2371 58.9913H17.4021C16.5663 52.7916 14.924 46.7237 12.5155 40.9373C9.77427 34.5953 6.24191 28.6146 2 23.1332C11.1423 29.1797 18.0825 38.2615 22.2021 48.3003C22.9072 50.0151 23.5258 51.7624 24.0577 53.5422C24.0533 50.3356 23.7969 47.1342 23.2907 43.9666C22.8075 40.8969 22.0837 37.8687 21.1258 34.9092C18.4598 26.705 14.1546 19.3237 8.75464 12.4666C17.7423 17.6049 24.0144 26.4856 27.6268 35.9331C27.9361 36.7133 28.2454 37.5057 28.4866 38.3042C28.2722 36.3903 28.0103 34.4784 27.701 32.5686C26.1979 23.1881 23.4082 13.966 20.2784 5C26.1083 12.3778 30.4485 20.7886 33.0639 29.777C34.5548 34.7965 35.5898 39.9367 36.1567 45.1369C36.1567 45.2283 36.1567 45.3197 36.1876 45.4173C40.0969 34.4459 48.1567 24.8582 58.5237 19.5188L56.4268 21.7313C49.3381 29.6551 44.1917 39.4074 42.2 49.7692C46.6474 42.6196 54.5278 36.8535 62 34.9945Z" fill="#96DBB3"/>
<path d="M49.7957 9.28516C49.0348 10.236 48.2617 11.1686 47.5565 12.156C42.6248 18.9329 39.1766 26.6459 37.4307 34.8058C37.3503 35.1898 37.2699 35.5738 37.2019 35.9638C36.707 33.6233 36.1214 31.3295 35.4452 29.0824C35.1977 28.2595 34.9379 27.4428 34.6658 26.6443C37.4643 21.4781 41.1021 16.7981 45.4349 12.7899C46.8086 11.5284 48.2654 10.3576 49.7957 9.28516Z" fill="#96DBB3"/>
</svg>
