<svg width="36" height="36" viewBox="0 0 36 36" fill="none" xmlns="http://www.w3.org/2000/svg">
<path d="M17.7518 2L4 10.0046V25.9954L4.60095 26.3462L17.7518 34L31.5005 25.9954V10.0046L17.7518 2ZM28.9228 10.4469L25.0913 12.4419L20.4667 5.52336L28.9228 10.4469ZM12.1388 14.3699H23.3647L17.7518 24.1712L12.1388 14.3699ZM12.2608 12.6921L17.7518 4.48008L23.2427 12.6921H12.2608ZM10.7508 15.3216L16.2814 24.9826L6.16587 24.7112L10.7508 15.3216ZM24.7527 15.3247L29.3346 24.7112L19.2221 24.9826L24.7527 15.3247ZM15.0368 5.52336L10.4122 12.4419L6.57769 10.4439L15.0368 5.52336ZM5.67779 11.8684L9.57941 13.897L5.67779 21.8894V11.8684ZM16.9129 26.6757V31.5687L8.0999 26.4408L16.9129 26.6757ZM18.5907 31.5687V26.6757L27.4006 26.4408L18.5907 31.5687ZM25.9241 13.9001L29.8227 11.8684V21.8833L25.9241 13.9001Z" fill="#CDA563"/>
</svg>
