<svg width="36" height="36" viewBox="0 0 36 36" fill="none" xmlns="http://www.w3.org/2000/svg">
<path d="M12.7702 20.6537C13.0934 20.6377 13.4518 20.3113 13.727 19.8153C14.5975 18.1928 15.1607 16.6055 15.7079 15.0822C16.476 12.9285 17.26 10.7108 18.8473 8.60832C20.521 6.42262 23.1643 5.56817 24.1371 5.32816C24.2908 5.29296 24.326 5.10735 24.2043 5.00495C21.849 3.12646 18.8985 2 15.6727 2C14.0855 2 12.5686 2.27201 11.1509 2.76804C9.41003 3.38247 8.23237 5.02415 8.18117 6.86744C8.12996 10.4548 8.69319 15.5623 11.8997 20.0553C12.1718 20.4489 12.4982 20.6697 12.7702 20.6537Z" fill="#E5E5E5"/>
<path d="M29.3086 15.6295C29.3086 16.6343 29.1998 17.6168 28.995 18.5608H21.5578C20.6553 18.5608 19.9225 19.2968 19.9225 20.1993V28.6317C17.6728 29.3741 15.1639 29.5373 12.5686 28.9549C7.82592 27.8957 3.69452 24.0523 2.41445 18.9448C1.40961 14.9478 2.31205 10.986 4.25774 8.15069C4.46255 7.85948 4.92338 7.97789 4.92338 8.3363C5.02578 12.2501 5.94743 17.3063 9.24039 21.9338C10.13 23.1978 11.4069 24.5291 12.7382 24.5291H12.9782C14.447 24.4267 15.7591 22.8746 16.5783 21.3545C17.5672 19.508 18.1656 17.7992 18.7609 16.1607C19.5129 14.0582 20.1625 12.2661 21.4426 10.5572C22.073 9.72197 23.1483 8.67872 24.5979 8.48991C25.0236 8.43871 25.4684 8.45791 25.878 8.52511C27.0397 8.78113 27.9773 9.63557 28.4029 10.746C28.9822 12.2661 29.3086 13.9046 29.3086 15.6295Z" fill="#E5E5E5"/>
<path d="M33.6416 19.8409H21.5578C21.3599 19.8409 21.1994 20.0013 21.1994 20.1993V32.2831C21.1994 32.481 21.3599 32.6415 21.5578 32.6415H33.6416C33.8396 32.6415 34 32.481 34 32.2831V20.1993C34 20.0013 33.8396 19.8409 33.6416 19.8409Z" fill="#A9575F"/>
</svg>
