<svg width="64" height="64" viewBox="0 0 64 64" fill="none" xmlns="http://www.w3.org/2000/svg">
<g clip-path="url(#clip0_501_3414)">
<path d="M48.1456 12.3579H31.9821V15.6566H48.1456C53.9513 15.6566 58.6774 20.3827 58.6774 26.1944V37.8117C58.6774 43.6234 53.9513 48.3435 48.1456 48.3435H41.0924V41.5063L33.7693 48.3435L32 49.9929L33.7633 51.6422L41.0924 58.4855V51.6422H48.1456C55.7685 51.6422 61.9761 45.4407 61.9761 37.8117V26.1944C61.9761 18.5654 55.7685 12.3579 48.1456 12.3579Z" fill="#B3B3B3"/>
<path d="M13.9952 25.9904C20.6226 25.9904 25.9904 20.6226 25.9904 13.9952C25.9904 7.36785 20.6226 2 13.9952 2C7.36785 2 2 7.36785 2 13.9952C2 20.6226 7.36785 25.9904 13.9952 25.9904ZM5.61655 10.4266C6.55818 8.0096 8.60336 6.11435 11.0804 5.35866C11.8721 5.11875 12.7117 5.56258 12.9516 6.35426C13.1915 7.14594 12.7477 7.98561 11.956 8.22551C10.3487 8.71731 9.02319 9.94682 8.41144 11.5122C8.18353 12.106 7.61375 12.4658 7.01399 12.4658C6.83407 12.4658 6.64814 12.4298 6.46821 12.3639C5.69452 12.064 5.31667 11.1943 5.61655 10.4206V10.4266Z" fill="#B3B3B3"/>
<path d="M13.9952 61.9904C20.6226 61.9904 25.9904 56.6226 25.9904 49.9952C25.9904 43.3679 20.6226 38 13.9952 38C7.36785 38 2 43.3739 2 49.9952C2 56.6166 7.36785 61.9904 13.9952 61.9904ZM5.61655 46.4266C6.55818 44.0096 8.60336 42.1144 11.0804 41.3587C11.8721 41.1188 12.7117 41.5626 12.9516 42.3543C13.1915 43.1459 12.7477 43.9856 11.956 44.2255C10.3487 44.7173 9.02319 45.9468 8.41144 47.5122C8.18353 48.106 7.61375 48.4658 7.01399 48.4658C6.83407 48.4658 6.64814 48.4298 6.46821 48.3639C5.69452 48.064 5.31667 47.1943 5.61655 46.4206V46.4266Z" fill="#E35B5B"/>
</g>
<defs>
<clipPath id="clip0_501_3414">
<rect width="59.976" height="60" fill="white" transform="translate(2 2)"/>
</clipPath>
</defs>
</svg>
